Coordinates
version=1
nRows=18
nColumns=22
inDegrees=yes

Units are S.I. units (second, meters, Newtons, ...)
If the header above contains a line with 'inDegrees', this indicates whether rotational values are in degrees (yes) or radians (no).

endheader
time	pelvis_tilt	pelvis_list	pelvis_rotation	pelvis_tx	pelvis_ty	pelvis_tz	hip_flexion_r	hip_adduction_r	hip_rotation_r	knee_angle_r	ankle_angle_r	subtalar_angle_r	hip_flexion_l	hip_adduction_l	hip_rotation_l	knee_angle_l	ankle_angle_l	subtalar_angle_l	lumbar_extension	lumbar_bending	lumbar_rotation
      2.97000000	      2.02680821	     -1.73940285	     -4.64032890	     -0.08381310	      1.07431852	     -0.27985697	     -1.16730914	      6.12337826	     -2.08059172	    -17.74691062	     14.46909559	     -6.26279420	     23.06577478	     -5.71075295	     -4.55621189	    -41.25696765	      9.94225854	     -0.49803521	    -10.51554632	     -1.90537999	     -1.32458655
      2.98000000	      2.00499980	     -1.87083523	     -4.78312283	     -0.09044277	      1.07557785	     -0.27923831	     -1.00948555	      6.27333334	     -2.20338037	    -17.27428824	     13.95644973	     -6.06422996	     22.52283369	     -5.60593716	     -3.79922773	    -42.16182277	      9.89408103	     -0.32223139	    -10.41698110	     -1.73416844	     -1.33912530
      2.99000000	      1.96863091	     -2.01038341	     -4.93932939	     -0.09702865	      1.07665205	     -0.27864724	     -0.83460944	      6.43370776	     -2.28753098	    -16.82103609	     13.48320059	     -5.82126027	     21.94638763	     -5.53411362	     -3.12590064	    -43.01269646	      9.86498332	     -0.10356580	    -10.30183697	     -1.54667574	     -1.35332169
      3.00000000	      1.91593677	     -2.14891238	     -5.11288908	     -0.10357295	      1.07753808	     -0.27806880	     -0.64091175	      6.59529541	     -2.32304555	    -16.38575982	     13.05313480	     -5.49981373	     21.33967760	     -5.49157338	     -2.54415609	    -43.80853783	      9.85903435	      0.18878463	    -10.16659173	     -1.35730929	     -1.36299726
      3.01000000	      1.85858085	     -2.31909299	     -5.29873817	     -0.11010018	      1.07824113	     -0.27749887	     -0.44078544	      6.79284077	     -2.32585280	    -15.96983383	     12.64862142	     -5.24652956	     20.70349502	     -5.51601934	     -2.04878132	    -44.56768223	      9.81300621	      0.41047268	    -10.03161079	     -1.12896407	     -1.35043364
      3.02000000	      1.79492428	     -2.51516824	     -5.49172777	     -0.11663823	      1.07875770	     -0.27695016	     -0.22764935	      7.02111479	     -2.29451376	    -15.57949607	     12.29294862	     -5.04063467	     20.04377821	     -5.59325737	     -1.61698840	    -45.29142654	      9.75690319	      0.59165348	     -9.89886607	     -0.86806893	     -1.33633725
      3.03000000	      1.71182500	     -2.69266929	     -5.67869456	     -0.12313438	      1.07910605	     -0.27644675	     -0.00620011	      7.23462746	     -2.22338026	    -15.17343416	     11.94144910	     -4.85030121	     19.37289198	     -5.67211526	     -1.24998334	    -45.96726559	      9.66873077	      0.76435044	     -9.73752772	     -0.62350817	     -1.35208604
      3.04000000	      1.64738641	     -2.92321218	     -5.85063746	     -0.12962898	      1.07930468	     -0.27602222	      0.21067780	      7.49787794	     -2.19057383	    -14.81591425	     11.69790795	     -4.51182558	     18.65568666	     -5.81222951	     -0.88965640	    -46.61424728	      9.69512980	      1.10172247	     -9.60819112	     -0.31114446	     -1.36362715
      3.05000000	      1.56310636	     -3.13580560	     -6.00009818	     -0.13611154	      1.07936074	     -0.27567009	      0.43206139	      7.74827113	     -2.13581403	    -14.42548513	     11.44854755	     -4.25104428	     17.94304365	     -5.94520540	     -0.56814351	    -47.22465901	      9.63677608	      1.37125117	     -9.45333129	     -0.01366202	     -1.41861110
      3.06000000	      1.48218177	     -3.36191165	     -6.11941430	     -0.14259634	      1.07930181	     -0.27542930	      0.66059503	      8.01120734	     -2.11114827	    -14.06034252	     11.22579951	     -3.98321837	     17.21083955	     -6.09353430	     -0.25961138	    -47.80194641	      9.58949467	      1.67143271	     -9.30401701	      0.30970823	     -1.52055758
      3.07000000	      1.39738132	     -3.58161973	     -6.19930492	     -0.14906739	      1.07914838	     -0.27530063	      0.88358861	      8.26594661	     -2.11303876	    -13.67572635	     11.06566156	     -3.63135606	     16.47024077	     -6.23351466	      0.04853838	    -48.34166147	      9.52096648	      2.10925809	     -9.14824578	      0.63162385	     -1.67241468
      3.08000000	      1.31232342	     -3.82153683	     -6.24152330	     -0.15558076	      1.07891593	     -0.27529162	      1.12211845	      8.53962450	     -2.16385936	    -13.31415311	     10.89069173	     -3.32173729	     15.72713168	     -6.39506542	      0.35074399	    -48.85725881	      9.43074591	      2.54344792	     -8.99919280	      0.98420944	     -1.86590063
      3.09000000	      1.22686511	     -4.06729924	     -6.24370206	     -0.16211016	      1.07863255	     -0.27540182	      1.36775700	      8.81558176	     -2.25737194	    -12.95934506	     10.71719817	     -2.99459381	     14.97954133	     -6.56303385	      0.64406188	    -49.33796791	      9.31828157	      3.05798546	     -8.84860354	      1.34975788	     -2.10765475
      3.10000000	      1.14133605	     -4.32028840	     -6.20519523	     -0.16866288	      1.07831707	     -0.27562828	      1.61907070	      9.09547726	     -2.38979933	    -12.60679782	     10.54639057	     -2.66043931	     14.22890107	     -6.73817290	      0.93152130	    -49.78006971	      9.16766766	      3.64825679	     -8.69619629	      1.72744009	     -2.39068540
      3.11000000	      1.05780659	     -4.57310714	     -6.12965778	     -0.17524388	      1.07799010	     -0.27597981	      1.88034770	      9.36880138	     -2.55335510	    -12.26685795	     10.36033855	     -2.31384368	     13.47406479	     -6.91178965	      1.20738068	    -50.17883440	      8.97181604	      4.33585353	     -8.54123196	      2.10986452	     -2.70799076
      3.12000000	      0.97339729	     -4.81412383	     -6.03318104	     -0.18189737	      1.07766558	     -0.27641628	      2.15929203	      9.62628420	     -2.72934463	    -11.94077129	     10.15751625	     -1.96101092	     12.71819322	     -7.07359720	      1.46227841	    -50.52551017	      8.70299183	      5.13238344	     -8.38551953	      2.47691785	     -3.05331316
      3.13000000	      0.89221413	     -5.04425488	     -5.90710788	     -0.18858933	      1.07734685	     -0.27697315	      2.45125404	      9.86496986	     -2.92197258	    -11.63184829	      9.94386468	     -1.61841885	     11.95931488	     -7.22014288	      1.70229826	    -50.82038788	      8.38129190	      6.03548675	     -8.22560025	      2.83324670	     -3.41871068
      3.14000000	      0.81076607	     -5.25316149	     -5.76627773	     -0.19536497	      1.07703801	     -0.27761642	      2.76694313	     10.07678891	     -3.12027770	    -11.34528857	      9.71011583	     -1.29876766	     11.20123355	     -7.33910776	      1.92462794	    -51.05591516	      8.00130837	      7.04186583	     -8.06436251	      3.16176611	     -3.79432199
